# Blender v2.79 (sub 0) OBJ File: ''
# www.blender.org
mtllib flywheel.mtl
o Flywheel_Cylinder
v -0.017766 -0.750000 0.937500
v -0.750000 -0.017768 0.937500
v -0.750000 -0.017768 0.062500
v -0.017768 -0.750000 0.062500
v 1.017768 1.750000 0.937500
v 1.017767 1.750000 0.062500
v -0.017767 1.750000 0.062500
v -0.017766 1.750000 0.937500
v 1.750000 -0.017766 0.937500
v 1.017768 -0.750000 0.937500
v 1.017767 -0.750000 0.062500
v 1.750000 -0.017768 0.062500
v 1.750000 1.017767 0.062500
v 1.750000 1.017768 0.937500
v -0.750000 1.017768 0.937500
v -0.750000 1.017767 0.062500
v 0.250000 0.396447 0.937500
v 0.250000 0.396447 0.062500
v 0.250000 0.603553 0.062500
v 0.250000 0.603553 0.937500
v 0.396447 0.750000 0.937500
v 0.396446 0.750000 0.062500
v 0.603553 0.750000 0.062500
v 0.603554 0.750000 0.937500
v 0.750000 0.603553 0.937500
v 0.750000 0.603553 0.062500
v 0.750000 0.396447 0.062500
v 0.750000 0.396447 0.937500
v 0.603553 0.250000 0.937500
v 0.603554 0.250000 0.062500
v 0.396447 0.250000 0.062500
v 0.396447 0.250000 0.937500
vt 0.000000 0.062500
vt 1.000000 0.062500
vt 1.000000 0.937500
vt 0.000000 0.937500
vt 1.000000 0.062500
vt 1.000000 0.937500
vt 0.000000 0.937500
vt 0.000000 0.062500
vt 0.000000 0.062500
vt 1.000000 0.062500
vt 1.000000 0.937500
vt -0.000000 0.937500
vt 1.000000 0.937500
vt 1.000000 0.062500
vt 1.000000 0.062500
vt 1.000000 0.937500
vt 0.000000 0.937500
vt 0.000000 0.062500
vt 0.000000 0.062500
vt 1.000000 0.062500
vt 1.000000 0.937500
vt -0.000000 0.937500
vt 0.000000 0.062500
vt -0.000000 0.937500
vt 1.000000 0.062500
vt 1.000000 0.937500
vt -0.000000 0.937500
vt 0.000000 0.062500
vt 1.000000 1.000000
vt 0.000000 1.000000
vt 0.375000 0.250000
vt 0.625000 0.250000
vt 0.000000 1.000000
vt 0.375000 0.250000
vt 0.625000 0.250000
vt 1.000000 1.000000
vt 0.000000 1.000000
vt 0.375000 0.250000
vt 0.625000 0.250000
vt 1.000000 1.000000
vt 1.000000 1.000000
vt 0.000000 1.000000
vt 0.375000 0.250000
vt 0.625000 0.250000
vt 1.000000 1.000000
vt 0.000000 1.000000
vt 0.375000 0.250000
vt 0.625000 0.250000
vt 0.000000 1.000000
vt 0.375000 0.250000
vt 0.625000 0.250000
vt 1.000000 1.000000
vt 1.000000 1.000000
vt 0.000000 1.000000
vt 0.375000 0.250000
vt 0.625000 0.250000
vt 0.000000 1.000000
vt 0.375000 0.250000
vt 0.625000 0.250000
vt 1.000000 1.000000
vt 1.000000 1.000000
vt 0.000000 1.000000
vt 0.375000 0.250000
vt 0.625000 0.250000
vt 0.000000 1.000000
vt 0.375000 0.250000
vt 0.625000 0.250000
vt 1.000000 1.000000
vt 0.000000 1.000000
vt 0.375000 0.250000
vt 0.625000 0.250000
vt 1.000000 1.000000
vt 1.000000 1.000000
vt 0.000000 1.000000
vt 0.375000 0.250000
vt 0.625000 0.250000
vt 1.000000 1.000000
vt 0.000000 1.000000
vt 0.375000 0.250000
vt 0.625000 0.250000
vt 0.000000 1.000000
vt 0.375000 0.250000
vt 0.625000 0.250000
vt 1.000000 1.000000
vt 1.000000 1.000000
vt 0.000000 1.000000
vt 0.375000 0.250000
vt 0.625000 0.250000
vt 0.000000 1.000000
vt 0.375000 0.250000
vt 0.625000 0.250000
vt 1.000000 1.000000
vn -0.7071 -0.7071 0.0000
vn 0.0000 1.0000 -0.0000
vn 0.7071 -0.7071 0.0000
vn 0.5547 -0.0000 0.8321
vn 0.5547 0.0000 -0.8321
vn -0.5547 -0.0000 0.8321
vn -0.5547 0.0000 -0.8321
vn -0.7071 0.7071 0.0000
vn 0.7071 0.7071 -0.0000
vn 0.0000 -1.0000 -0.0000
vn -0.0000 -0.0000 1.0000
vn -0.0000 0.0000 -1.0000
usemtl Wheel
f 1/1/1 2/2/1 3/3/1 4/4/1
f 5/5/2 6/6/2 7/7/2 8/8/2
f 9/9/3 10/10/3 11/11/3 12/12/3
f 9/9/4 12/12/5 13/13/5 14/14/4
f 15/15/6 16/16/7 3/17/7 2/18/6
f 15/19/8 8/20/8 7/21/8 16/22/8
f 5/23/9 14/14/9 13/13/9 6/24/9
f 1/25/10 4/26/10 11/27/10 10/28/10
f 5/29/11 8/30/11 21/31/11 24/32/11
f 5/33/11 24/34/11 25/35/11 14/36/4
f 14/37/4 25/38/11 28/39/11 9/40/4
f 10/41/11 9/42/4 28/43/11 29/44/11
f 1/45/11 10/46/11 29/47/11 32/48/11
f 1/49/11 32/50/11 17/51/11 2/52/6
f 15/53/6 2/54/6 17/55/11 20/56/11
f 15/57/6 20/58/11 21/59/11 8/60/11
f 7/61/12 6/62/12 23/63/12 22/64/12
f 7/65/12 22/66/12 19/67/12 16/68/7
f 16/69/7 19/70/12 18/71/12 3/72/7
f 4/73/12 3/74/7 18/75/12 31/76/12
f 11/77/12 4/78/12 31/79/12 30/80/12
f 11/81/12 30/82/12 27/83/12 12/84/5
f 13/85/5 12/86/5 27/87/12 26/88/12
f 13/89/5 26/90/12 23/91/12 6/92/12
o Shaft
v 0.603554 0.250000 0.000000
v 0.750000 0.396446 0.000000
v 0.750000 0.396446 1.000000
v 0.250000 0.603554 0.000000
v 0.250000 0.396446 0.000000
v 0.250000 0.396446 1.000000
v 0.250000 0.603554 1.000000
v 0.396446 0.750000 0.000000
v 0.603554 0.750000 0.000000
v 0.750000 0.603554 0.000000
v 0.396446 0.250000 0.000000
v 0.396446 0.250000 1.000000
v 0.750000 0.603554 1.000000
v 0.603554 0.750000 1.000000
v 0.396446 0.750000 1.000000
v 0.603554 0.250000 1.000000
vt 0.625000 1.000000
vt 0.375000 1.000000
vt 0.375000 0.000000
vt 0.625000 0.000000
vt 0.375000 0.000000
vt 0.625000 0.000000
vt 0.625000 1.000000
vt 0.375000 1.000000
vt 0.625000 0.000000
vt 0.312500 0.000000
vt 0.312500 1.000000
vt 0.625000 1.000000
vt 0.375000 1.000000
vt 0.625000 1.000000
vt 0.625000 0.000000
vt 0.375000 -0.000000
vt 0.625000 1.000000
vt 0.625000 0.000000
vt 0.625000 1.000000
vt 0.375000 1.000000
vt 0.375000 0.000000
vt 0.625000 0.000000
vt 0.625000 1.000000
vt 0.375000 1.000000
vt 0.375000 0.000000
vt 0.625000 0.000000
vt 0.375000 1.000000
vt 0.375000 0.000000
vt 0.625000 0.000000
vt 0.625000 1.000000
vt 0.625000 0.187500
vt 0.812500 0.375000
vt 0.812500 0.625000
vt 0.625000 0.812500
vt 0.187500 0.625000
vt 0.187500 0.375000
vt 0.375000 0.187500
vt 0.375000 0.812500
vt 0.625000 0.187500
vt 0.812500 0.375000
vt 0.812500 0.625000
vt 0.625000 0.812500
vt 0.187500 0.625000
vt 0.187500 0.375000
vt 0.375000 0.187500
vt 0.375000 0.812500
vn 0.2971 -0.7173 -0.6303
vn 0.7173 -0.2971 -0.6303
vn 0.7173 -0.2971 0.6303
vn 0.2971 -0.7173 0.6303
vn -0.7173 0.2971 -0.6303
vn -0.7173 -0.2971 -0.6303
vn -0.7173 -0.2971 0.6303
vn -0.7173 0.2971 0.6303
vn -0.2971 0.7173 -0.6303
vn -0.2971 0.7173 0.6303
vn 0.2971 0.7173 -0.6303
vn 0.2971 0.7173 0.6303
vn 0.7173 0.2971 -0.6303
vn 0.7173 0.2971 0.6303
vn -0.2971 -0.7173 -0.6303
vn -0.2971 -0.7173 0.6303
usemtl Shaft
f 33/93/13 34/94/14 35/95/15 48/96/16
f 36/97/17 37/98/18 38/99/19 39/100/20
f 40/101/21 36/102/17 39/103/20 47/104/22
f 41/105/23 40/106/21 47/107/22 46/108/24
f 42/109/25 41/105/23 46/108/24 45/110/26
f 34/111/14 42/112/25 45/113/26 35/114/15
f 43/115/27 33/116/13 48/117/16 44/118/28
f 38/119/19 37/120/18 43/121/27 44/122/28
f 42/123/25 34/124/14 33/125/13 43/126/27
f 36/127/17 40/128/21 41/129/23 37/130/18
f 43/126/27 37/130/18 41/129/23 42/123/25
f 39/131/20 38/132/19 44/133/28 48/134/16
f 45/135/26 46/136/24 47/137/22 35/138/15
f 48/134/16 35/138/15 47/137/22 39/131/20
