# Blender v2.79 (sub 0) OBJ File: ''
# www.blender.org
mtllib flywheel.mtl
o Flywheel_Cylinder
v -0.017766 -0.750000 0.937500
v -0.750000 -0.017768 0.937500
v -0.750000 -0.017768 0.062500
v -0.017768 -0.750000 0.062500
v 1.017768 1.750000 0.937500
v 1.017767 1.750000 0.062500
v -0.017767 1.750000 0.062500
v -0.017766 1.750000 0.937500
v 1.750000 -0.017766 0.937500
v 1.017768 -0.750000 0.937500
v 1.017767 -0.750000 0.062500
v 1.750000 -0.017768 0.062500
v 1.750000 1.017767 0.062500
v 1.750000 1.017768 0.937500
v -0.750000 1.017768 0.937500
v -0.750000 1.017767 0.062500
v 0.000000 0.292893 0.937500
v 0.000000 0.292893 0.062500
v 0.000000 0.707107 0.062500
v 0.000000 0.707107 0.937500
v 0.292893 1.000000 0.937500
v 0.292893 1.000000 0.062500
v 0.707107 1.000000 0.062500
v 0.707107 1.000000 0.937500
v 1.000000 0.707107 0.937500
v 1.000000 0.707107 0.062500
v 1.000000 0.292893 0.062500
v 1.000000 0.292893 0.937500
v 0.707107 -0.000000 0.937500
v 0.707107 -0.000000 0.062500
v 0.292893 -0.000000 0.062500
v 0.292893 -0.000000 0.937500
v 0.437500 1.000000 0.625000
v 0.562500 1.000000 0.625000
v 0.437500 1.000000 0.375000
v 0.562500 1.000000 0.375000
v 0.437500 -0.000000 0.625000
v 0.562500 -0.000000 0.625000
v 0.437500 -0.000000 0.375000
v 0.562500 -0.000000 0.375000
v 0.102252 0.809359 0.625000
v 0.190641 0.897748 0.625000
v 0.102252 0.809359 0.375000
v 0.190641 0.897748 0.375000
v 0.809359 0.102252 0.625000
v 0.897748 0.190641 0.625000
v 0.809359 0.102252 0.375000
v 0.897748 0.190641 0.375000
v 0.809359 0.897748 0.625000
v 0.897748 0.809359 0.625000
v 0.809359 0.897748 0.375000
v 0.897748 0.809359 0.375000
v 0.102252 0.190641 0.625000
v 0.190641 0.102252 0.625000
v 0.102252 0.190641 0.375000
v 0.190641 0.102252 0.375000
v 0.000000 0.437500 0.625000
v 0.000000 0.562500 0.625000
v 0.000000 0.437500 0.375000
v 0.000000 0.562500 0.375000
v 1.000000 0.437500 0.625000
v 1.000000 0.562500 0.625000
v 1.000000 0.437500 0.375000
v 1.000000 0.562500 0.375000
vt 0.437500 0.000000
vt 0.562500 0.000000
vt 0.562500 1.000000
vt 0.437500 1.000000
vt 0.437500 0.000000
vt 0.562500 0.000000
vt 0.562500 1.000000
vt 0.437500 1.000000
vt 0.625000 0.000000
vt 0.625000 1.000000
vt 0.375000 1.000000
vt 0.375000 0.000000
vt 0.625000 0.000000
vt 0.625000 1.000000
vt 0.375000 1.000000
vt 0.375000 0.000000
vt 0.437500 0.000000
vt 0.562500 0.000000
vt 0.562500 1.000000
vt 0.437500 1.000000
vt 0.437500 0.000000
vt 0.562500 0.000000
vt 0.562500 1.000000
vt 0.437500 1.000000
vt 0.625000 0.000000
vt 0.625000 1.000000
vt 0.375000 1.000000
vt 0.375000 0.000000
vt 0.625000 0.000000
vt 0.625000 1.000000
vt 0.375000 1.000000
vt 0.375000 0.000000
vt 0.437500 0.000000
vt 0.562500 0.000000
vt 0.562500 1.000000
vt 0.437500 1.000000
vt 0.437500 0.000000
vt 0.562500 0.000000
vt 0.562500 1.000000
vt 0.437500 1.000000
vt 0.625000 0.000000
vt 0.625000 1.000000
vt 0.375000 1.000000
vt 0.375000 0.000000
vt 0.625000 0.000000
vt 0.625000 1.000000
vt 0.375000 1.000000
vt 0.375000 0.000000
vt 0.437500 0.000000
vt 0.562500 0.000000
vt 0.562500 1.000000
vt 0.437500 1.000000
vt 0.437500 0.000000
vt 0.562500 0.000000
vt 0.562500 1.000000
vt 0.437500 1.000000
vt 0.625000 0.000000
vt 0.625000 1.000000
vt 0.375000 1.000000
vt 0.375000 0.000000
vt 0.625000 0.000000
vt 0.625000 1.000000
vt 0.375000 1.000000
vt 0.375000 0.000000
vt 0.000000 0.062500
vt 1.000000 0.062500
vt 1.000000 0.937500
vt 0.000000 0.937500
vt 1.000000 0.062500
vt 1.000000 0.937500
vt 0.000000 0.937500
vt 0.000000 0.062500
vt 0.000000 0.062500
vt 1.000000 0.062500
vt 1.000000 0.937500
vt -0.000000 0.937500
vt 1.000000 0.937500
vt 1.000000 0.062500
vt 1.000000 0.062500
vt 1.000000 0.937500
vt 0.000000 0.937500
vt 0.000000 0.062500
vt 0.000000 0.062500
vt 1.000000 0.062500
vt 1.000000 0.937500
vt -0.000000 0.937500
vt 0.000000 0.062500
vt -0.000000 0.937500
vt 1.000000 0.062500
vt 1.000000 0.937500
vt -0.000000 0.937500
vt 0.000000 0.062500
vt 0.312500 0.062500
vt 0.312500 0.937500
vt 0.687500 0.937500
vt 0.687500 0.062500
vt 0.312500 0.062500
vt 0.312500 0.937500
vt 0.687500 0.062500
vt 0.687500 0.937500
vt 0.312500 0.937500
vt 0.312500 0.062500
vt 0.312500 0.062500
vt 0.687500 0.062500
vt 0.687500 0.937500
vt 0.312500 0.937500
vt 0.687500 0.937500
vt 0.687500 0.062500
vt 0.312500 0.062500
vt 0.312500 0.937500
vt 0.687500 0.937500
vt 0.687500 0.062500
vt 1.000000 1.000000
vt 0.000000 1.000000
vt 0.312500 0.250000
vt 0.687500 0.250000
vt 0.000000 1.000000
vt 0.312500 0.250000
vt 0.687500 0.250000
vt 1.000000 1.000000
vt 0.000000 1.000000
vt 0.312500 0.250000
vt 0.687500 0.250000
vt 1.000000 1.000000
vt 1.000000 1.000000
vt 0.000000 1.000000
vt 0.312500 0.250000
vt 0.687500 0.250000
vt 1.000000 1.000000
vt 0.000000 1.000000
vt 0.312500 0.250000
vt 0.687500 0.250000
vt 0.000000 1.000000
vt 0.312500 0.250000
vt 0.687500 0.250000
vt 1.000000 1.000000
vt 1.000000 1.000000
vt 0.000000 1.000000
vt 0.312500 0.250000
vt 0.687500 0.250000
vt 0.000000 1.000000
vt 0.312500 0.250000
vt 0.687500 0.250000
vt 1.000000 1.000000
vt 1.000000 1.000000
vt 0.000000 1.000000
vt 0.312500 0.250000
vt 0.687500 0.250000
vt 0.000000 1.000000
vt 0.312500 0.250000
vt 0.687500 0.250000
vt 1.000000 1.000000
vt 0.000000 1.000000
vt 0.312500 0.250000
vt 0.687500 0.250000
vt 1.000000 1.000000
vt 1.000000 1.000000
vt 0.000000 1.000000
vt 0.312500 0.250000
vt 0.687500 0.250000
vt 1.000000 1.000000
vt 0.000000 1.000000
vt 0.312500 0.250000
vt 0.687500 0.250000
vt 0.000000 1.000000
vt 0.312500 0.250000
vt 0.687500 0.250000
vt 1.000000 1.000000
vt 1.000000 1.000000
vt 0.000000 1.000000
vt 0.312500 0.250000
vt 0.687500 0.250000
vt 0.000000 1.000000
vt 0.312500 0.250000
vt 0.687500 0.250000
vt 1.000000 1.000000
vn 0.0000 -0.0000 -1.0000
vn 0.0000 0.0000 1.0000
vn -1.0000 -0.0000 0.0000
vn 1.0000 0.0000 0.0000
vn -0.7071 -0.7071 0.0000
vn 0.7071 0.7071 0.0000
vn -0.7071 0.7071 0.0000
vn 0.7071 -0.7071 0.0000
vn 0.0000 -1.0000 0.0000
vn 0.0000 1.0000 0.0000
vn 0.5547 -0.0000 0.8321
vn 0.5547 0.0000 -0.8321
vn -0.5547 -0.0000 0.8321
vn -0.5547 0.0000 -0.8321
vn 0.3714 -0.0000 0.9285
vn 0.3714 0.0000 -0.9285
vn -0.3714 -0.0000 0.9285
vn -0.3714 -0.0000 -0.9285
usemtl Wheel
f 35/1/1 36/2/1 40/3/1 39/4/1
f 37/5/2 38/6/2 34/7/2 33/8/2
f 35/9/3 39/10/3 37/11/3 33/12/3
f 40/13/4 36/14/4 34/15/4 38/16/4
f 43/17/1 44/18/1 48/19/1 47/20/1
f 45/21/2 46/22/2 42/23/2 41/24/2
f 43/25/5 47/26/5 45/27/5 41/28/5
f 48/29/6 44/30/6 42/31/6 46/32/6
f 51/33/1 52/34/1 56/35/1 55/36/1
f 53/37/2 54/38/2 50/39/2 49/40/2
f 51/41/7 55/42/7 53/43/7 49/44/7
f 56/45/8 52/46/8 50/47/8 54/48/8
f 59/49/1 60/50/1 64/51/1 63/52/1
f 61/53/2 62/54/2 58/55/2 57/56/2
f 59/57/9 63/58/9 61/59/9 57/60/9
f 64/61/10 60/62/10 58/63/10 62/64/10
f 1/65/5 2/66/5 3/67/5 4/68/5
f 5/69/10 6/70/10 7/71/10 8/72/10
f 9/73/8 10/74/8 11/75/8 12/76/8
f 9/73/11 12/76/12 13/77/12 14/78/11
f 15/79/13 16/80/14 3/81/14 2/82/13
f 15/83/7 8/84/7 7/85/7 16/86/7
f 5/87/6 14/78/6 13/77/6 6/88/6
f 1/89/9 4/90/9 11/91/9 10/92/9
f 17/93/15 18/94/16 19/95/16 20/96/15
f 21/97/8 20/96/8 19/95/8 22/98/8
f 21/99/9 22/100/9 23/101/9 24/102/9
f 25/103/5 24/104/5 23/105/5 26/106/5
f 25/103/17 26/106/18 27/107/18 28/108/17
f 29/109/7 28/108/7 27/107/7 30/110/7
f 29/109/10 30/110/10 31/111/10 32/112/10
f 17/93/6 32/112/6 31/111/6 18/94/6
f 5/113/2 8/114/2 21/115/2 24/116/2
f 5/117/2 24/118/2 25/119/17 14/120/11
f 14/121/11 25/122/17 28/123/17 9/124/11
f 10/125/2 9/126/11 28/127/17 29/128/2
f 1/129/2 10/130/2 29/131/2 32/132/2
f 1/133/2 32/134/2 17/135/15 2/136/13
f 15/137/13 2/138/13 17/139/15 20/140/15
f 15/141/13 20/142/15 21/143/2 8/144/2
f 7/145/1 6/146/1 23/147/1 22/148/1
f 7/149/1 22/150/1 19/151/16 16/152/14
f 16/153/14 19/154/16 18/155/16 3/156/14
f 4/157/1 3/158/14 18/159/16 31/160/1
f 11/161/1 4/162/1 31/163/1 30/164/1
f 11/165/1 30/166/1 27/167/18 12/168/12
f 13/169/12 12/170/12 27/171/18 26/172/18
f 13/173/12 26/174/18 23/175/1 6/176/1
o Shaft
v 0.551777 0.375000 0.000000
v 0.625000 0.448223 0.000000
v 0.625000 0.448223 1.000000
v 0.551777 0.375000 1.000000
v 0.375000 0.551777 0.000000
v 0.375000 0.448223 0.000000
v 0.375000 0.448223 1.000000
v 0.375000 0.551777 1.000000
v 0.448223 0.625000 0.000000
v 0.448223 0.625000 1.000000
v 0.551777 0.625000 0.000000
v 0.551777 0.625000 1.000000
v 0.625000 0.551777 0.000000
v 0.625000 0.551777 1.000000
v 0.448223 0.375000 0.000000
v 0.448223 0.375000 1.000000
vt 0.125000 1.000000
vt 0.062500 1.000000
vt 0.062500 0.000000
vt 0.125000 0.000000
vt 0.250000 0.000000
vt 0.312500 0.000000
vt 0.312500 1.000000
vt 0.250000 1.000000
vt 0.375000 0.000000
vt 0.312500 0.000000
vt 0.312500 1.000000
vt 0.375000 1.000000
vt 0.375000 1.000000
vt 0.437500 1.000000
vt 0.437500 -0.000000
vt 0.375000 -0.000000
vt 0.500000 1.000000
vt 0.437500 1.000000
vt 0.437500 0.000000
vt 0.500000 0.000000
vt 0.000000 1.000000
vt 0.000000 0.000000
vt 0.187500 1.000000
vt 0.187500 -0.000000
vt 0.187500 1.000000
vt 0.187500 -0.000000
vt 0.250000 0.000000
vt 0.250000 1.000000
vn 0.7071 -0.7071 -0.0000
vn -1.0000 0.0000 0.0000
vn -0.7071 0.7071 0.0000
vn 0.0000 1.0000 0.0000
vn 0.7071 0.7071 0.0000
vn 1.0000 0.0000 0.0000
vn 0.0000 -1.0000 -0.0000
vn -0.7071 -0.7071 -0.0000
usemtl Shaft
f 65/177/19 66/178/19 67/179/19 68/180/19
f 69/181/20 70/182/20 71/183/20 72/184/20
f 73/185/21 69/186/21 72/187/21 74/188/21
f 75/189/22 73/190/22 74/191/22 76/192/22
f 77/193/23 75/194/23 76/195/23 78/196/23
f 66/178/24 77/197/24 78/198/24 67/179/24
f 79/199/25 65/177/25 68/180/25 80/200/25
f 71/201/26 70/202/26 79/203/26 80/204/26
